ISO-10303-21;
HEADER;
/* Generated by software containing ST-Developer
 * from STEP Tools, Inc. (www.steptools.com) 
 */

FILE_DESCRIPTION(
/* description */ (''),
/* implementation_level */ '2;1');

FILE_NAME(
/* name */ '6x6x3_Pushbutton.step',
/* time_stamp */ '2024-09-25T17:14:59-07:00',
/* author */ (''),
/* organization */ (''),
/* preprocessor_version */ 'ST-DEVELOPER v20',
/* originating_system */ 'Autodesk Translation Framework v13.20.0.188',

/* authorisation */ '');

FILE_SCHEMA (('AUTOMOTIVE_DESIGN { 1 0 10303 214 3 1 1 }'));
ENDSEC;

DATA;
#10=MECHANICAL_DESIGN_GEOMETRIC_PRESENTATION_REPRESENTATION('',(#13,#14,
#15,#16,#17),#832);
#11=SHAPE_REPRESENTATION_RELATIONSHIP('SRR','None',#839,#12);
#12=ADVANCED_BREP_SHAPE_REPRESENTATION('',(#18,#19,#20,#21,#22),#831);
#13=STYLED_ITEM('',(#848),#18);
#14=STYLED_ITEM('',(#848),#19);
#15=STYLED_ITEM('',(#848),#20);
#16=STYLED_ITEM('',(#848),#21);
#17=STYLED_ITEM('',(#848),#22);
#18=MANIFOLD_SOLID_BREP('Body1',#508);
#19=MANIFOLD_SOLID_BREP('Body2',#509);
#20=MANIFOLD_SOLID_BREP('Body3',#510);
#21=MANIFOLD_SOLID_BREP('Body4',#511);
#22=MANIFOLD_SOLID_BREP('Body5',#512);
#23=FACE_BOUND('',#94,.T.);
#24=PLANE('',#529);
#25=PLANE('',#530);
#26=PLANE('',#531);
#27=PLANE('',#532);
#28=PLANE('',#533);
#29=PLANE('',#534);
#30=PLANE('',#535);
#31=PLANE('',#536);
#32=PLANE('',#537);
#33=PLANE('',#538);
#34=PLANE('',#539);
#35=PLANE('',#540);
#36=PLANE('',#541);
#37=PLANE('',#542);
#38=PLANE('',#543);
#39=PLANE('',#544);
#40=PLANE('',#545);
#41=PLANE('',#546);
#42=PLANE('',#547);
#43=PLANE('',#548);
#44=PLANE('',#549);
#45=PLANE('',#550);
#46=PLANE('',#551);
#47=PLANE('',#552);
#48=PLANE('',#553);
#49=PLANE('',#554);
#50=PLANE('',#555);
#51=PLANE('',#556);
#52=PLANE('',#557);
#53=PLANE('',#558);
#54=PLANE('',#559);
#55=FACE_OUTER_BOUND('',#87,.T.);
#56=FACE_OUTER_BOUND('',#88,.T.);
#57=FACE_OUTER_BOUND('',#89,.T.);
#58=FACE_OUTER_BOUND('',#90,.T.);
#59=FACE_OUTER_BOUND('',#91,.T.);
#60=FACE_OUTER_BOUND('',#92,.T.);
#61=FACE_OUTER_BOUND('',#93,.T.);
#62=FACE_OUTER_BOUND('',#95,.T.);
#63=FACE_OUTER_BOUND('',#96,.T.);
#64=FACE_OUTER_BOUND('',#97,.T.);
#65=FACE_OUTER_BOUND('',#98,.T.);
#66=FACE_OUTER_BOUND('',#99,.T.);
#67=FACE_OUTER_BOUND('',#100,.T.);
#68=FACE_OUTER_BOUND('',#101,.T.);
#69=FACE_OUTER_BOUND('',#102,.T.);
#70=FACE_OUTER_BOUND('',#103,.T.);
#71=FACE_OUTER_BOUND('',#104,.T.);
#72=FACE_OUTER_BOUND('',#105,.T.);
#73=FACE_OUTER_BOUND('',#106,.T.);
#74=FACE_OUTER_BOUND('',#107,.T.);
#75=FACE_OUTER_BOUND('',#108,.T.);
#76=FACE_OUTER_BOUND('',#109,.T.);
#77=FACE_OUTER_BOUND('',#110,.T.);
#78=FACE_OUTER_BOUND('',#111,.T.);
#79=FACE_OUTER_BOUND('',#112,.T.);
#80=FACE_OUTER_BOUND('',#113,.T.);
#81=FACE_OUTER_BOUND('',#114,.T.);
#82=FACE_OUTER_BOUND('',#115,.T.);
#83=FACE_OUTER_BOUND('',#116,.T.);
#84=FACE_OUTER_BOUND('',#117,.T.);
#85=FACE_OUTER_BOUND('',#118,.T.);
#86=FACE_OUTER_BOUND('',#119,.T.);
#87=EDGE_LOOP('',(#349,#350,#351,#352));
#88=EDGE_LOOP('',(#353));
#89=EDGE_LOOP('',(#354,#355,#356,#357));
#90=EDGE_LOOP('',(#358,#359,#360,#361));
#91=EDGE_LOOP('',(#362,#363,#364,#365));
#92=EDGE_LOOP('',(#366,#367,#368,#369));
#93=EDGE_LOOP('',(#370,#371,#372,#373));
#94=EDGE_LOOP('',(#374));
#95=EDGE_LOOP('',(#375,#376,#377,#378));
#96=EDGE_LOOP('',(#379,#380,#381,#382));
#97=EDGE_LOOP('',(#383,#384,#385,#386));
#98=EDGE_LOOP('',(#387,#388,#389,#390));
#99=EDGE_LOOP('',(#391,#392,#393,#394));
#100=EDGE_LOOP('',(#395,#396,#397,#398));
#101=EDGE_LOOP('',(#399,#400,#401,#402));
#102=EDGE_LOOP('',(#403,#404,#405,#406));
#103=EDGE_LOOP('',(#407,#408,#409,#410));
#104=EDGE_LOOP('',(#411,#412,#413,#414));
#105=EDGE_LOOP('',(#415,#416,#417,#418));
#106=EDGE_LOOP('',(#419,#420,#421,#422));
#107=EDGE_LOOP('',(#423,#424,#425,#426));
#108=EDGE_LOOP('',(#427,#428,#429,#430));
#109=EDGE_LOOP('',(#431,#432,#433,#434));
#110=EDGE_LOOP('',(#435,#436,#437,#438));
#111=EDGE_LOOP('',(#439,#440,#441,#442));
#112=EDGE_LOOP('',(#443,#444,#445,#446));
#113=EDGE_LOOP('',(#447,#448,#449,#450));
#114=EDGE_LOOP('',(#451,#452,#453,#454));
#115=EDGE_LOOP('',(#455,#456,#457,#458));
#116=EDGE_LOOP('',(#459,#460,#461,#462));
#117=EDGE_LOOP('',(#463,#464,#465,#466));
#118=EDGE_LOOP('',(#467,#468,#469,#470));
#119=EDGE_LOOP('',(#471,#472,#473,#474));
#120=LINE('',#696,#181);
#121=LINE('',#702,#182);
#122=LINE('',#704,#183);
#123=LINE('',#706,#184);
#124=LINE('',#707,#185);
#125=LINE('',#710,#186);
#126=LINE('',#712,#187);
#127=LINE('',#713,#188);
#128=LINE('',#716,#189);
#129=LINE('',#718,#190);
#130=LINE('',#719,#191);
#131=LINE('',#721,#192);
#132=LINE('',#722,#193);
#133=LINE('',#728,#194);
#134=LINE('',#730,#195);
#135=LINE('',#732,#196);
#136=LINE('',#733,#197);
#137=LINE('',#736,#198);
#138=LINE('',#738,#199);
#139=LINE('',#739,#200);
#140=LINE('',#742,#201);
#141=LINE('',#744,#202);
#142=LINE('',#745,#203);
#143=LINE('',#747,#204);
#144=LINE('',#748,#205);
#145=LINE('',#754,#206);
#146=LINE('',#756,#207);
#147=LINE('',#758,#208);
#148=LINE('',#759,#209);
#149=LINE('',#762,#210);
#150=LINE('',#764,#211);
#151=LINE('',#765,#212);
#152=LINE('',#768,#213);
#153=LINE('',#770,#214);
#154=LINE('',#771,#215);
#155=LINE('',#773,#216);
#156=LINE('',#774,#217);
#157=LINE('',#780,#218);
#158=LINE('',#782,#219);
#159=LINE('',#784,#220);
#160=LINE('',#785,#221);
#161=LINE('',#788,#222);
#162=LINE('',#790,#223);
#163=LINE('',#791,#224);
#164=LINE('',#794,#225);
#165=LINE('',#796,#226);
#166=LINE('',#797,#227);
#167=LINE('',#799,#228);
#168=LINE('',#800,#229);
#169=LINE('',#806,#230);
#170=LINE('',#808,#231);
#171=LINE('',#810,#232);
#172=LINE('',#811,#233);
#173=LINE('',#814,#234);
#174=LINE('',#816,#235);
#175=LINE('',#817,#236);
#176=LINE('',#820,#237);
#177=LINE('',#822,#238);
#178=LINE('',#823,#239);
#179=LINE('',#825,#240);
#180=LINE('',#826,#241);
#181=VECTOR('',#566,1.5);
#182=VECTOR('',#573,10.);
#183=VECTOR('',#574,10.);
#184=VECTOR('',#575,10.);
#185=VECTOR('',#576,10.);
#186=VECTOR('',#579,10.);
#187=VECTOR('',#580,10.);
#188=VECTOR('',#581,10.);
#189=VECTOR('',#584,10.);
#190=VECTOR('',#585,10.);
#191=VECTOR('',#586,10.);
#192=VECTOR('',#589,10.);
#193=VECTOR('',#590,10.);
#194=VECTOR('',#597,10.);
#195=VECTOR('',#598,10.);
#196=VECTOR('',#599,10.);
#197=VECTOR('',#600,10.);
#198=VECTOR('',#603,10.);
#199=VECTOR('',#604,10.);
#200=VECTOR('',#605,10.);
#201=VECTOR('',#608,10.);
#202=VECTOR('',#609,10.);
#203=VECTOR('',#610,10.);
#204=VECTOR('',#613,10.);
#205=VECTOR('',#614,10.);
#206=VECTOR('',#621,10.);
#207=VECTOR('',#622,10.);
#208=VECTOR('',#623,10.);
#209=VECTOR('',#624,10.);
#210=VECTOR('',#627,10.);
#211=VECTOR('',#628,10.);
#212=VECTOR('',#629,10.);
#213=VECTOR('',#632,10.);
#214=VECTOR('',#633,10.);
#215=VECTOR('',#634,10.);
#216=VECTOR('',#637,10.);
#217=VECTOR('',#638,10.);
#218=VECTOR('',#645,10.);
#219=VECTOR('',#646,10.);
#220=VECTOR('',#647,10.);
#221=VECTOR('',#648,10.);
#222=VECTOR('',#651,10.);
#223=VECTOR('',#652,10.);
#224=VECTOR('',#653,10.);
#225=VECTOR('',#656,10.);
#226=VECTOR('',#657,10.);
#227=VECTOR('',#658,10.);
#228=VECTOR('',#661,10.);
#229=VECTOR('',#662,10.);
#230=VECTOR('',#669,10.);
#231=VECTOR('',#670,10.);
#232=VECTOR('',#671,10.);
#233=VECTOR('',#672,10.);
#234=VECTOR('',#675,10.);
#235=VECTOR('',#676,10.);
#236=VECTOR('',#677,10.);
#237=VECTOR('',#680,10.);
#238=VECTOR('',#681,10.);
#239=VECTOR('',#682,10.);
#240=VECTOR('',#685,10.);
#241=VECTOR('',#686,10.);
#242=CIRCLE('',#527,1.5);
#243=CIRCLE('',#528,1.5);
#244=VERTEX_POINT('',#693);
#245=VERTEX_POINT('',#695);
#246=VERTEX_POINT('',#700);
#247=VERTEX_POINT('',#701);
#248=VERTEX_POINT('',#703);
#249=VERTEX_POINT('',#705);
#250=VERTEX_POINT('',#709);
#251=VERTEX_POINT('',#711);
#252=VERTEX_POINT('',#715);
#253=VERTEX_POINT('',#717);
#254=VERTEX_POINT('',#726);
#255=VERTEX_POINT('',#727);
#256=VERTEX_POINT('',#729);
#257=VERTEX_POINT('',#731);
#258=VERTEX_POINT('',#735);
#259=VERTEX_POINT('',#737);
#260=VERTEX_POINT('',#741);
#261=VERTEX_POINT('',#743);
#262=VERTEX_POINT('',#752);
#263=VERTEX_POINT('',#753);
#264=VERTEX_POINT('',#755);
#265=VERTEX_POINT('',#757);
#266=VERTEX_POINT('',#761);
#267=VERTEX_POINT('',#763);
#268=VERTEX_POINT('',#767);
#269=VERTEX_POINT('',#769);
#270=VERTEX_POINT('',#778);
#271=VERTEX_POINT('',#779);
#272=VERTEX_POINT('',#781);
#273=VERTEX_POINT('',#783);
#274=VERTEX_POINT('',#787);
#275=VERTEX_POINT('',#789);
#276=VERTEX_POINT('',#793);
#277=VERTEX_POINT('',#795);
#278=VERTEX_POINT('',#804);
#279=VERTEX_POINT('',#805);
#280=VERTEX_POINT('',#807);
#281=VERTEX_POINT('',#809);
#282=VERTEX_POINT('',#813);
#283=VERTEX_POINT('',#815);
#284=VERTEX_POINT('',#819);
#285=VERTEX_POINT('',#821);
#286=EDGE_CURVE('',#244,#244,#242,.T.);
#287=EDGE_CURVE('',#244,#245,#120,.T.);
#288=EDGE_CURVE('',#245,#245,#243,.T.);
#289=EDGE_CURVE('',#246,#247,#121,.T.);
#290=EDGE_CURVE('',#247,#248,#122,.T.);
#291=EDGE_CURVE('',#249,#248,#123,.T.);
#292=EDGE_CURVE('',#246,#249,#124,.T.);
#293=EDGE_CURVE('',#250,#246,#125,.T.);
#294=EDGE_CURVE('',#251,#249,#126,.T.);
#295=EDGE_CURVE('',#250,#251,#127,.T.);
#296=EDGE_CURVE('',#252,#250,#128,.T.);
#297=EDGE_CURVE('',#253,#251,#129,.T.);
#298=EDGE_CURVE('',#252,#253,#130,.T.);
#299=EDGE_CURVE('',#247,#252,#131,.T.);
#300=EDGE_CURVE('',#248,#253,#132,.T.);
#301=EDGE_CURVE('',#254,#255,#133,.T.);
#302=EDGE_CURVE('',#254,#256,#134,.T.);
#303=EDGE_CURVE('',#257,#256,#135,.T.);
#304=EDGE_CURVE('',#255,#257,#136,.T.);
#305=EDGE_CURVE('',#255,#258,#137,.T.);
#306=EDGE_CURVE('',#259,#257,#138,.T.);
#307=EDGE_CURVE('',#258,#259,#139,.T.);
#308=EDGE_CURVE('',#258,#260,#140,.T.);
#309=EDGE_CURVE('',#261,#259,#141,.T.);
#310=EDGE_CURVE('',#260,#261,#142,.T.);
#311=EDGE_CURVE('',#260,#254,#143,.T.);
#312=EDGE_CURVE('',#256,#261,#144,.T.);
#313=EDGE_CURVE('',#262,#263,#145,.T.);
#314=EDGE_CURVE('',#263,#264,#146,.T.);
#315=EDGE_CURVE('',#265,#264,#147,.T.);
#316=EDGE_CURVE('',#262,#265,#148,.T.);
#317=EDGE_CURVE('',#266,#262,#149,.T.);
#318=EDGE_CURVE('',#267,#265,#150,.T.);
#319=EDGE_CURVE('',#266,#267,#151,.T.);
#320=EDGE_CURVE('',#268,#266,#152,.T.);
#321=EDGE_CURVE('',#269,#267,#153,.T.);
#322=EDGE_CURVE('',#268,#269,#154,.T.);
#323=EDGE_CURVE('',#263,#268,#155,.T.);
#324=EDGE_CURVE('',#264,#269,#156,.T.);
#325=EDGE_CURVE('',#270,#271,#157,.T.);
#326=EDGE_CURVE('',#271,#272,#158,.T.);
#327=EDGE_CURVE('',#273,#272,#159,.T.);
#328=EDGE_CURVE('',#270,#273,#160,.T.);
#329=EDGE_CURVE('',#274,#270,#161,.T.);
#330=EDGE_CURVE('',#275,#273,#162,.T.);
#331=EDGE_CURVE('',#274,#275,#163,.T.);
#332=EDGE_CURVE('',#276,#274,#164,.T.);
#333=EDGE_CURVE('',#277,#275,#165,.T.);
#334=EDGE_CURVE('',#276,#277,#166,.T.);
#335=EDGE_CURVE('',#271,#276,#167,.T.);
#336=EDGE_CURVE('',#272,#277,#168,.T.);
#337=EDGE_CURVE('',#278,#279,#169,.T.);
#338=EDGE_CURVE('',#278,#280,#170,.T.);
#339=EDGE_CURVE('',#281,#280,#171,.T.);
#340=EDGE_CURVE('',#279,#281,#172,.T.);
#341=EDGE_CURVE('',#279,#282,#173,.T.);
#342=EDGE_CURVE('',#283,#281,#174,.T.);
#343=EDGE_CURVE('',#282,#283,#175,.T.);
#344=EDGE_CURVE('',#282,#284,#176,.T.);
#345=EDGE_CURVE('',#285,#283,#177,.T.);
#346=EDGE_CURVE('',#284,#285,#178,.T.);
#347=EDGE_CURVE('',#284,#278,#179,.T.);
#348=EDGE_CURVE('',#280,#285,#180,.T.);
#349=ORIENTED_EDGE('',*,*,#286,.F.);
#350=ORIENTED_EDGE('',*,*,#287,.T.);
#351=ORIENTED_EDGE('',*,*,#288,.F.);
#352=ORIENTED_EDGE('',*,*,#287,.F.);
#353=ORIENTED_EDGE('',*,*,#286,.T.);
#354=ORIENTED_EDGE('',*,*,#289,.T.);
#355=ORIENTED_EDGE('',*,*,#290,.T.);
#356=ORIENTED_EDGE('',*,*,#291,.F.);
#357=ORIENTED_EDGE('',*,*,#292,.F.);
#358=ORIENTED_EDGE('',*,*,#293,.T.);
#359=ORIENTED_EDGE('',*,*,#292,.T.);
#360=ORIENTED_EDGE('',*,*,#294,.F.);
#361=ORIENTED_EDGE('',*,*,#295,.F.);
#362=ORIENTED_EDGE('',*,*,#296,.T.);
#363=ORIENTED_EDGE('',*,*,#295,.T.);
#364=ORIENTED_EDGE('',*,*,#297,.F.);
#365=ORIENTED_EDGE('',*,*,#298,.F.);
#366=ORIENTED_EDGE('',*,*,#299,.T.);
#367=ORIENTED_EDGE('',*,*,#298,.T.);
#368=ORIENTED_EDGE('',*,*,#300,.F.);
#369=ORIENTED_EDGE('',*,*,#290,.F.);
#370=ORIENTED_EDGE('',*,*,#300,.T.);
#371=ORIENTED_EDGE('',*,*,#297,.T.);
#372=ORIENTED_EDGE('',*,*,#294,.T.);
#373=ORIENTED_EDGE('',*,*,#291,.T.);
#374=ORIENTED_EDGE('',*,*,#288,.T.);
#375=ORIENTED_EDGE('',*,*,#299,.F.);
#376=ORIENTED_EDGE('',*,*,#289,.F.);
#377=ORIENTED_EDGE('',*,*,#293,.F.);
#378=ORIENTED_EDGE('',*,*,#296,.F.);
#379=ORIENTED_EDGE('',*,*,#301,.F.);
#380=ORIENTED_EDGE('',*,*,#302,.T.);
#381=ORIENTED_EDGE('',*,*,#303,.F.);
#382=ORIENTED_EDGE('',*,*,#304,.F.);
#383=ORIENTED_EDGE('',*,*,#305,.F.);
#384=ORIENTED_EDGE('',*,*,#304,.T.);
#385=ORIENTED_EDGE('',*,*,#306,.F.);
#386=ORIENTED_EDGE('',*,*,#307,.F.);
#387=ORIENTED_EDGE('',*,*,#308,.F.);
#388=ORIENTED_EDGE('',*,*,#307,.T.);
#389=ORIENTED_EDGE('',*,*,#309,.F.);
#390=ORIENTED_EDGE('',*,*,#310,.F.);
#391=ORIENTED_EDGE('',*,*,#311,.F.);
#392=ORIENTED_EDGE('',*,*,#310,.T.);
#393=ORIENTED_EDGE('',*,*,#312,.F.);
#394=ORIENTED_EDGE('',*,*,#302,.F.);
#395=ORIENTED_EDGE('',*,*,#311,.T.);
#396=ORIENTED_EDGE('',*,*,#301,.T.);
#397=ORIENTED_EDGE('',*,*,#305,.T.);
#398=ORIENTED_EDGE('',*,*,#308,.T.);
#399=ORIENTED_EDGE('',*,*,#312,.T.);
#400=ORIENTED_EDGE('',*,*,#309,.T.);
#401=ORIENTED_EDGE('',*,*,#306,.T.);
#402=ORIENTED_EDGE('',*,*,#303,.T.);
#403=ORIENTED_EDGE('',*,*,#313,.T.);
#404=ORIENTED_EDGE('',*,*,#314,.T.);
#405=ORIENTED_EDGE('',*,*,#315,.F.);
#406=ORIENTED_EDGE('',*,*,#316,.F.);
#407=ORIENTED_EDGE('',*,*,#317,.T.);
#408=ORIENTED_EDGE('',*,*,#316,.T.);
#409=ORIENTED_EDGE('',*,*,#318,.F.);
#410=ORIENTED_EDGE('',*,*,#319,.F.);
#411=ORIENTED_EDGE('',*,*,#320,.T.);
#412=ORIENTED_EDGE('',*,*,#319,.T.);
#413=ORIENTED_EDGE('',*,*,#321,.F.);
#414=ORIENTED_EDGE('',*,*,#322,.F.);
#415=ORIENTED_EDGE('',*,*,#323,.T.);
#416=ORIENTED_EDGE('',*,*,#322,.T.);
#417=ORIENTED_EDGE('',*,*,#324,.F.);
#418=ORIENTED_EDGE('',*,*,#314,.F.);
#419=ORIENTED_EDGE('',*,*,#323,.F.);
#420=ORIENTED_EDGE('',*,*,#313,.F.);
#421=ORIENTED_EDGE('',*,*,#317,.F.);
#422=ORIENTED_EDGE('',*,*,#320,.F.);
#423=ORIENTED_EDGE('',*,*,#324,.T.);
#424=ORIENTED_EDGE('',*,*,#321,.T.);
#425=ORIENTED_EDGE('',*,*,#318,.T.);
#426=ORIENTED_EDGE('',*,*,#315,.T.);
#427=ORIENTED_EDGE('',*,*,#325,.T.);
#428=ORIENTED_EDGE('',*,*,#326,.T.);
#429=ORIENTED_EDGE('',*,*,#327,.F.);
#430=ORIENTED_EDGE('',*,*,#328,.F.);
#431=ORIENTED_EDGE('',*,*,#329,.T.);
#432=ORIENTED_EDGE('',*,*,#328,.T.);
#433=ORIENTED_EDGE('',*,*,#330,.F.);
#434=ORIENTED_EDGE('',*,*,#331,.F.);
#435=ORIENTED_EDGE('',*,*,#332,.T.);
#436=ORIENTED_EDGE('',*,*,#331,.T.);
#437=ORIENTED_EDGE('',*,*,#333,.F.);
#438=ORIENTED_EDGE('',*,*,#334,.F.);
#439=ORIENTED_EDGE('',*,*,#335,.T.);
#440=ORIENTED_EDGE('',*,*,#334,.T.);
#441=ORIENTED_EDGE('',*,*,#336,.F.);
#442=ORIENTED_EDGE('',*,*,#326,.F.);
#443=ORIENTED_EDGE('',*,*,#335,.F.);
#444=ORIENTED_EDGE('',*,*,#325,.F.);
#445=ORIENTED_EDGE('',*,*,#329,.F.);
#446=ORIENTED_EDGE('',*,*,#332,.F.);
#447=ORIENTED_EDGE('',*,*,#336,.T.);
#448=ORIENTED_EDGE('',*,*,#333,.T.);
#449=ORIENTED_EDGE('',*,*,#330,.T.);
#450=ORIENTED_EDGE('',*,*,#327,.T.);
#451=ORIENTED_EDGE('',*,*,#337,.F.);
#452=ORIENTED_EDGE('',*,*,#338,.T.);
#453=ORIENTED_EDGE('',*,*,#339,.F.);
#454=ORIENTED_EDGE('',*,*,#340,.F.);
#455=ORIENTED_EDGE('',*,*,#341,.F.);
#456=ORIENTED_EDGE('',*,*,#340,.T.);
#457=ORIENTED_EDGE('',*,*,#342,.F.);
#458=ORIENTED_EDGE('',*,*,#343,.F.);
#459=ORIENTED_EDGE('',*,*,#344,.F.);
#460=ORIENTED_EDGE('',*,*,#343,.T.);
#461=ORIENTED_EDGE('',*,*,#345,.F.);
#462=ORIENTED_EDGE('',*,*,#346,.F.);
#463=ORIENTED_EDGE('',*,*,#347,.F.);
#464=ORIENTED_EDGE('',*,*,#346,.T.);
#465=ORIENTED_EDGE('',*,*,#348,.F.);
#466=ORIENTED_EDGE('',*,*,#338,.F.);
#467=ORIENTED_EDGE('',*,*,#347,.T.);
#468=ORIENTED_EDGE('',*,*,#337,.T.);
#469=ORIENTED_EDGE('',*,*,#341,.T.);
#470=ORIENTED_EDGE('',*,*,#344,.T.);
#471=ORIENTED_EDGE('',*,*,#348,.T.);
#472=ORIENTED_EDGE('',*,*,#345,.T.);
#473=ORIENTED_EDGE('',*,*,#342,.T.);
#474=ORIENTED_EDGE('',*,*,#339,.T.);
#475=CYLINDRICAL_SURFACE('',#526,1.5);
#476=ADVANCED_FACE('',(#55),#475,.T.);
#477=ADVANCED_FACE('',(#56),#24,.T.);
#478=ADVANCED_FACE('',(#57),#25,.T.);
#479=ADVANCED_FACE('',(#58),#26,.T.);
#480=ADVANCED_FACE('',(#59),#27,.T.);
#481=ADVANCED_FACE('',(#60),#28,.T.);
#482=ADVANCED_FACE('',(#61,#23),#29,.T.);
#483=ADVANCED_FACE('',(#62),#30,.F.);
#484=ADVANCED_FACE('',(#63),#31,.T.);
#485=ADVANCED_FACE('',(#64),#32,.T.);
#486=ADVANCED_FACE('',(#65),#33,.T.);
#487=ADVANCED_FACE('',(#66),#34,.T.);
#488=ADVANCED_FACE('',(#67),#35,.T.);
#489=ADVANCED_FACE('',(#68),#36,.T.);
#490=ADVANCED_FACE('',(#69),#37,.T.);
#491=ADVANCED_FACE('',(#70),#38,.T.);
#492=ADVANCED_FACE('',(#71),#39,.T.);
#493=ADVANCED_FACE('',(#72),#40,.T.);
#494=ADVANCED_FACE('',(#73),#41,.T.);
#495=ADVANCED_FACE('',(#74),#42,.T.);
#496=ADVANCED_FACE('',(#75),#43,.T.);
#497=ADVANCED_FACE('',(#76),#44,.T.);
#498=ADVANCED_FACE('',(#77),#45,.T.);
#499=ADVANCED_FACE('',(#78),#46,.T.);
#500=ADVANCED_FACE('',(#79),#47,.T.);
#501=ADVANCED_FACE('',(#80),#48,.T.);
#502=ADVANCED_FACE('',(#81),#49,.T.);
#503=ADVANCED_FACE('',(#82),#50,.T.);
#504=ADVANCED_FACE('',(#83),#51,.T.);
#505=ADVANCED_FACE('',(#84),#52,.T.);
#506=ADVANCED_FACE('',(#85),#53,.T.);
#507=ADVANCED_FACE('',(#86),#54,.T.);
#508=CLOSED_SHELL('',(#476,#477,#478,#479,#480,#481,#482,#483));
#509=CLOSED_SHELL('',(#484,#485,#486,#487,#488,#489));
#510=CLOSED_SHELL('',(#490,#491,#492,#493,#494,#495));
#511=CLOSED_SHELL('',(#496,#497,#498,#499,#500,#501));
#512=CLOSED_SHELL('',(#502,#503,#504,#505,#506,#507));
#513=DERIVED_UNIT_ELEMENT(#515,1.);
#514=DERIVED_UNIT_ELEMENT(#834,-3.);
#515=(
MASS_UNIT()
NAMED_UNIT(*)
SI_UNIT(.KILO.,.GRAM.)
);
#516=DERIVED_UNIT((#513,#514));
#517=MEASURE_REPRESENTATION_ITEM('density measure',
POSITIVE_RATIO_MEASURE(7850.),#516);
#518=PROPERTY_DEFINITION_REPRESENTATION(#523,#520);
#519=PROPERTY_DEFINITION_REPRESENTATION(#524,#521);
#520=REPRESENTATION('material name',(#522),#831);
#521=REPRESENTATION('density',(#517),#831);
#522=DESCRIPTIVE_REPRESENTATION_ITEM('Steel','Steel');
#523=PROPERTY_DEFINITION('material property','material name',#841);
#524=PROPERTY_DEFINITION('material property','density of part',#841);
#525=AXIS2_PLACEMENT_3D('',#691,#560,#561);
#526=AXIS2_PLACEMENT_3D('',#692,#562,#563);
#527=AXIS2_PLACEMENT_3D('',#694,#564,#565);
#528=AXIS2_PLACEMENT_3D('',#697,#567,#568);
#529=AXIS2_PLACEMENT_3D('',#698,#569,#570);
#530=AXIS2_PLACEMENT_3D('',#699,#571,#572);
#531=AXIS2_PLACEMENT_3D('',#708,#577,#578);
#532=AXIS2_PLACEMENT_3D('',#714,#582,#583);
#533=AXIS2_PLACEMENT_3D('',#720,#587,#588);
#534=AXIS2_PLACEMENT_3D('',#723,#591,#592);
#535=AXIS2_PLACEMENT_3D('',#724,#593,#594);
#536=AXIS2_PLACEMENT_3D('',#725,#595,#596);
#537=AXIS2_PLACEMENT_3D('',#734,#601,#602);
#538=AXIS2_PLACEMENT_3D('',#740,#606,#607);
#539=AXIS2_PLACEMENT_3D('',#746,#611,#612);
#540=AXIS2_PLACEMENT_3D('',#749,#615,#616);
#541=AXIS2_PLACEMENT_3D('',#750,#617,#618);
#542=AXIS2_PLACEMENT_3D('',#751,#619,#620);
#543=AXIS2_PLACEMENT_3D('',#760,#625,#626);
#544=AXIS2_PLACEMENT_3D('',#766,#630,#631);
#545=AXIS2_PLACEMENT_3D('',#772,#635,#636);
#546=AXIS2_PLACEMENT_3D('',#775,#639,#640);
#547=AXIS2_PLACEMENT_3D('',#776,#641,#642);
#548=AXIS2_PLACEMENT_3D('',#777,#643,#644);
#549=AXIS2_PLACEMENT_3D('',#786,#649,#650);
#550=AXIS2_PLACEMENT_3D('',#792,#654,#655);
#551=AXIS2_PLACEMENT_3D('',#798,#659,#660);
#552=AXIS2_PLACEMENT_3D('',#801,#663,#664);
#553=AXIS2_PLACEMENT_3D('',#802,#665,#666);
#554=AXIS2_PLACEMENT_3D('',#803,#667,#668);
#555=AXIS2_PLACEMENT_3D('',#812,#673,#674);
#556=AXIS2_PLACEMENT_3D('',#818,#678,#679);
#557=AXIS2_PLACEMENT_3D('',#824,#683,#684);
#558=AXIS2_PLACEMENT_3D('',#827,#687,#688);
#559=AXIS2_PLACEMENT_3D('',#828,#689,#690);
#560=DIRECTION('axis',(0.,0.,1.));
#561=DIRECTION('refdir',(1.,0.,0.));
#562=DIRECTION('center_axis',(0.,0.,1.));
#563=DIRECTION('ref_axis',(-1.,0.,0.));
#564=DIRECTION('center_axis',(0.,0.,1.));
#565=DIRECTION('ref_axis',(-1.,0.,0.));
#566=DIRECTION('',(0.,0.,-1.));
#567=DIRECTION('center_axis',(0.,0.,-1.));
#568=DIRECTION('ref_axis',(-1.,0.,0.));
#569=DIRECTION('center_axis',(0.,0.,1.));
#570=DIRECTION('ref_axis',(-1.,0.,0.));
#571=DIRECTION('center_axis',(0.,-1.,0.));
#572=DIRECTION('ref_axis',(1.,0.,0.));
#573=DIRECTION('',(1.,0.,0.));
#574=DIRECTION('',(0.,0.,1.));
#575=DIRECTION('',(1.,0.,0.));
#576=DIRECTION('',(0.,0.,1.));
#577=DIRECTION('center_axis',(-1.,0.,0.));
#578=DIRECTION('ref_axis',(0.,-1.,0.));
#579=DIRECTION('',(0.,-1.,0.));
#580=DIRECTION('',(0.,-1.,0.));
#581=DIRECTION('',(0.,0.,1.));
#582=DIRECTION('center_axis',(0.,1.,0.));
#583=DIRECTION('ref_axis',(-1.,0.,0.));
#584=DIRECTION('',(-1.,0.,0.));
#585=DIRECTION('',(-1.,0.,0.));
#586=DIRECTION('',(0.,0.,1.));
#587=DIRECTION('center_axis',(1.,0.,0.));
#588=DIRECTION('ref_axis',(0.,1.,0.));
#589=DIRECTION('',(0.,1.,0.));
#590=DIRECTION('',(0.,1.,0.));
#591=DIRECTION('center_axis',(0.,0.,1.));
#592=DIRECTION('ref_axis',(1.,0.,0.));
#593=DIRECTION('center_axis',(0.,0.,1.));
#594=DIRECTION('ref_axis',(1.,0.,0.));
#595=DIRECTION('center_axis',(0.,1.,0.));
#596=DIRECTION('ref_axis',(-1.,0.,0.));
#597=DIRECTION('',(1.,0.,0.));
#598=DIRECTION('',(0.,0.,1.));
#599=DIRECTION('',(-1.,0.,0.));
#600=DIRECTION('',(0.,0.,1.));
#601=DIRECTION('center_axis',(1.,0.,0.));
#602=DIRECTION('ref_axis',(0.,1.,0.));
#603=DIRECTION('',(0.,-1.,0.));
#604=DIRECTION('',(0.,1.,0.));
#605=DIRECTION('',(0.,0.,1.));
#606=DIRECTION('center_axis',(0.,-1.,0.));
#607=DIRECTION('ref_axis',(1.,0.,0.));
#608=DIRECTION('',(-1.,0.,0.));
#609=DIRECTION('',(1.,0.,0.));
#610=DIRECTION('',(0.,0.,1.));
#611=DIRECTION('center_axis',(-1.,0.,0.));
#612=DIRECTION('ref_axis',(0.,-1.,0.));
#613=DIRECTION('',(0.,1.,0.));
#614=DIRECTION('',(0.,-1.,0.));
#615=DIRECTION('center_axis',(0.,0.,-1.));
#616=DIRECTION('ref_axis',(1.,0.,0.));
#617=DIRECTION('center_axis',(0.,0.,1.));
#618=DIRECTION('ref_axis',(1.,0.,0.));
#619=DIRECTION('center_axis',(-1.,0.,0.));
#620=DIRECTION('ref_axis',(0.,-1.,0.));
#621=DIRECTION('',(0.,-1.,0.));
#622=DIRECTION('',(0.,0.,1.));
#623=DIRECTION('',(0.,-1.,0.));
#624=DIRECTION('',(0.,0.,1.));
#625=DIRECTION('center_axis',(0.,1.,0.));
#626=DIRECTION('ref_axis',(-1.,0.,0.));
#627=DIRECTION('',(-1.,0.,0.));
#628=DIRECTION('',(-1.,0.,0.));
#629=DIRECTION('',(0.,0.,1.));
#630=DIRECTION('center_axis',(1.,0.,0.));
#631=DIRECTION('ref_axis',(0.,1.,0.));
#632=DIRECTION('',(0.,1.,0.));
#633=DIRECTION('',(0.,1.,0.));
#634=DIRECTION('',(0.,0.,1.));
#635=DIRECTION('center_axis',(2.22044604925037E-16,-1.,0.));
#636=DIRECTION('ref_axis',(1.,2.22044604925037E-16,0.));
#637=DIRECTION('',(1.,2.22044604925037E-16,0.));
#638=DIRECTION('',(1.,2.22044604925037E-16,0.));
#639=DIRECTION('center_axis',(0.,0.,-1.));
#640=DIRECTION('ref_axis',(1.,0.,0.));
#641=DIRECTION('center_axis',(0.,0.,1.));
#642=DIRECTION('ref_axis',(1.,0.,0.));
#643=DIRECTION('center_axis',(1.,0.,0.));
#644=DIRECTION('ref_axis',(0.,1.,0.));
#645=DIRECTION('',(0.,1.,0.));
#646=DIRECTION('',(0.,0.,1.));
#647=DIRECTION('',(0.,1.,0.));
#648=DIRECTION('',(0.,0.,1.));
#649=DIRECTION('center_axis',(0.,-1.,0.));
#650=DIRECTION('ref_axis',(1.,0.,0.));
#651=DIRECTION('',(1.,0.,0.));
#652=DIRECTION('',(1.,0.,0.));
#653=DIRECTION('',(0.,0.,1.));
#654=DIRECTION('center_axis',(-1.,0.,0.));
#655=DIRECTION('ref_axis',(0.,-1.,0.));
#656=DIRECTION('',(0.,-1.,0.));
#657=DIRECTION('',(0.,-1.,0.));
#658=DIRECTION('',(0.,0.,1.));
#659=DIRECTION('center_axis',(2.22044604925025E-16,1.,0.));
#660=DIRECTION('ref_axis',(-1.,2.22044604925025E-16,0.));
#661=DIRECTION('',(-1.,2.22044604925025E-16,0.));
#662=DIRECTION('',(-1.,2.22044604925025E-16,0.));
#663=DIRECTION('center_axis',(0.,0.,-1.));
#664=DIRECTION('ref_axis',(1.,0.,0.));
#665=DIRECTION('center_axis',(0.,0.,1.));
#666=DIRECTION('ref_axis',(1.,0.,0.));
#667=DIRECTION('center_axis',(-4.44089209850075E-16,-1.,0.));
#668=DIRECTION('ref_axis',(1.,-4.44089209850075E-16,0.));
#669=DIRECTION('',(-1.,4.44089209850075E-16,0.));
#670=DIRECTION('',(0.,0.,1.));
#671=DIRECTION('',(1.,-4.44089209850075E-16,0.));
#672=DIRECTION('',(0.,0.,1.));
#673=DIRECTION('center_axis',(-1.,7.40148683083438E-16,0.));
#674=DIRECTION('ref_axis',(-7.40148683083438E-16,-1.,0.));
#675=DIRECTION('',(7.40148683083438E-16,1.,0.));
#676=DIRECTION('',(-7.40148683083438E-16,-1.,0.));
#677=DIRECTION('',(0.,0.,1.));
#678=DIRECTION('center_axis',(0.,1.,0.));
#679=DIRECTION('ref_axis',(-1.,0.,0.));
#680=DIRECTION('',(1.,0.,0.));
#681=DIRECTION('',(-1.,0.,0.));
#682=DIRECTION('',(0.,0.,1.));
#683=DIRECTION('center_axis',(1.,0.,0.));
#684=DIRECTION('ref_axis',(0.,1.,0.));
#685=DIRECTION('',(0.,-1.,0.));
#686=DIRECTION('',(0.,1.,0.));
#687=DIRECTION('center_axis',(0.,0.,-1.));
#688=DIRECTION('ref_axis',(1.,0.,0.));
#689=DIRECTION('center_axis',(0.,0.,1.));
#690=DIRECTION('ref_axis',(1.,0.,0.));
#691=CARTESIAN_POINT('',(0.,0.,0.));
#692=CARTESIAN_POINT('Origin',(0.,0.,2.));
#693=CARTESIAN_POINT('',(1.5,1.83697019872103E-16,3.));
#694=CARTESIAN_POINT('Origin',(0.,0.,3.));
#695=CARTESIAN_POINT('',(1.5,1.83697019872103E-16,2.));
#696=CARTESIAN_POINT('',(1.5,1.83697019872103E-16,2.));
#697=CARTESIAN_POINT('Origin',(0.,0.,2.));
#698=CARTESIAN_POINT('Origin',(0.,0.,3.));
#699=CARTESIAN_POINT('Origin',(-3.1,-3.3,0.));
#700=CARTESIAN_POINT('',(-3.1,-3.3,0.));
#701=CARTESIAN_POINT('',(3.1,-3.3,0.));
#702=CARTESIAN_POINT('',(-3.1,-3.3,0.));
#703=CARTESIAN_POINT('',(3.1,-3.3,2.));
#704=CARTESIAN_POINT('',(3.1,-3.3,0.));
#705=CARTESIAN_POINT('',(-3.1,-3.3,2.));
#706=CARTESIAN_POINT('',(-3.1,-3.3,2.));
#707=CARTESIAN_POINT('',(-3.1,-3.3,0.));
#708=CARTESIAN_POINT('Origin',(-3.1,3.3,0.));
#709=CARTESIAN_POINT('',(-3.1,3.3,0.));
#710=CARTESIAN_POINT('',(-3.1,3.3,0.));
#711=CARTESIAN_POINT('',(-3.1,3.3,2.));
#712=CARTESIAN_POINT('',(-3.1,3.3,2.));
#713=CARTESIAN_POINT('',(-3.1,3.3,0.));
#714=CARTESIAN_POINT('Origin',(3.1,3.3,0.));
#715=CARTESIAN_POINT('',(3.1,3.3,0.));
#716=CARTESIAN_POINT('',(3.1,3.3,0.));
#717=CARTESIAN_POINT('',(3.1,3.3,2.));
#718=CARTESIAN_POINT('',(3.1,3.3,2.));
#719=CARTESIAN_POINT('',(3.1,3.3,0.));
#720=CARTESIAN_POINT('Origin',(3.1,-3.3,0.));
#721=CARTESIAN_POINT('',(3.1,-3.3,0.));
#722=CARTESIAN_POINT('',(3.1,-3.3,2.));
#723=CARTESIAN_POINT('Origin',(0.,0.,2.));
#724=CARTESIAN_POINT('Origin',(0.,0.,0.));
#725=CARTESIAN_POINT('Origin',(4.35000000000003,2.62499999999997,0.));
#726=CARTESIAN_POINT('',(3.1,2.62499999999997,0.));
#727=CARTESIAN_POINT('',(4.35000000000003,2.62499999999997,0.));
#728=CARTESIAN_POINT('',(3.1,2.62499999999997,0.));
#729=CARTESIAN_POINT('',(3.1,2.62499999999997,0.5));
#730=CARTESIAN_POINT('',(3.1,2.62499999999997,0.));
#731=CARTESIAN_POINT('',(4.35000000000003,2.62499999999997,0.5));
#732=CARTESIAN_POINT('',(3.1,2.62499999999997,0.5));
#733=CARTESIAN_POINT('',(4.35000000000003,2.62499999999997,0.));
#734=CARTESIAN_POINT('Origin',(4.35000000000003,1.87499999999998,0.));
#735=CARTESIAN_POINT('',(4.35000000000003,1.87499999999998,0.));
#736=CARTESIAN_POINT('',(4.35000000000003,2.62499999999997,0.));
#737=CARTESIAN_POINT('',(4.35000000000003,1.87499999999998,0.5));
#738=CARTESIAN_POINT('',(4.35000000000003,2.62499999999997,0.5));
#739=CARTESIAN_POINT('',(4.35000000000003,1.87499999999998,0.));
#740=CARTESIAN_POINT('Origin',(3.1,1.87499999999998,0.));
#741=CARTESIAN_POINT('',(3.1,1.87499999999998,0.));
#742=CARTESIAN_POINT('',(4.35000000000003,1.87499999999998,0.));
#743=CARTESIAN_POINT('',(3.1,1.87499999999998,0.5));
#744=CARTESIAN_POINT('',(4.35000000000003,1.87499999999998,0.5));
#745=CARTESIAN_POINT('',(3.1,1.87499999999998,0.));
#746=CARTESIAN_POINT('Origin',(3.1,2.62499999999997,0.));
#747=CARTESIAN_POINT('',(3.1,1.87499999999998,0.));
#748=CARTESIAN_POINT('',(3.1,1.87499999999998,0.5));
#749=CARTESIAN_POINT('Origin',(3.72500000000002,2.24999999999997,0.));
#750=CARTESIAN_POINT('Origin',(3.72500000000002,2.24999999999997,0.5));
#751=CARTESIAN_POINT('Origin',(-4.34999999999997,2.62499999999997,0.));
#752=CARTESIAN_POINT('',(-4.34999999999997,2.62499999999997,0.));
#753=CARTESIAN_POINT('',(-4.34999999999997,1.87499999999997,0.));
#754=CARTESIAN_POINT('',(-4.34999999999997,2.62499999999997,0.));
#755=CARTESIAN_POINT('',(-4.34999999999997,1.87499999999997,0.5));
#756=CARTESIAN_POINT('',(-4.34999999999997,1.87499999999997,0.));
#757=CARTESIAN_POINT('',(-4.34999999999997,2.62499999999997,0.5));
#758=CARTESIAN_POINT('',(-4.34999999999997,2.62499999999997,0.5));
#759=CARTESIAN_POINT('',(-4.34999999999997,2.62499999999997,0.));
#760=CARTESIAN_POINT('Origin',(-3.1,2.62499999999997,0.));
#761=CARTESIAN_POINT('',(-3.1,2.62499999999997,0.));
#762=CARTESIAN_POINT('',(-3.1,2.62499999999997,0.));
#763=CARTESIAN_POINT('',(-3.1,2.62499999999997,0.5));
#764=CARTESIAN_POINT('',(-3.1,2.62499999999997,0.5));
#765=CARTESIAN_POINT('',(-3.1,2.62499999999997,0.));
#766=CARTESIAN_POINT('Origin',(-3.1,1.87499999999997,0.));
#767=CARTESIAN_POINT('',(-3.1,1.87499999999997,0.));
#768=CARTESIAN_POINT('',(-3.1,1.87499999999997,0.));
#769=CARTESIAN_POINT('',(-3.1,1.87499999999997,0.5));
#770=CARTESIAN_POINT('',(-3.1,1.87499999999997,0.5));
#771=CARTESIAN_POINT('',(-3.1,1.87499999999997,0.));
#772=CARTESIAN_POINT('Origin',(-4.34999999999997,1.87499999999997,0.));
#773=CARTESIAN_POINT('',(-4.34999999999997,1.87499999999997,0.));
#774=CARTESIAN_POINT('',(-4.34999999999997,1.87499999999997,0.5));
#775=CARTESIAN_POINT('Origin',(-3.72499999999998,2.24999999999997,0.));
#776=CARTESIAN_POINT('Origin',(-3.72499999999998,2.24999999999997,0.5));
#777=CARTESIAN_POINT('Origin',(4.35000000000003,-2.62499999999994,0.));
#778=CARTESIAN_POINT('',(4.35000000000003,-2.62499999999994,0.));
#779=CARTESIAN_POINT('',(4.35000000000003,-1.87500000000011,0.));
#780=CARTESIAN_POINT('',(4.35000000000003,-2.62499999999994,0.));
#781=CARTESIAN_POINT('',(4.35000000000003,-1.87500000000011,0.5));
#782=CARTESIAN_POINT('',(4.35000000000003,-1.87500000000011,0.));
#783=CARTESIAN_POINT('',(4.35000000000003,-2.62499999999994,0.5));
#784=CARTESIAN_POINT('',(4.35000000000003,-2.62499999999994,0.5));
#785=CARTESIAN_POINT('',(4.35000000000003,-2.62499999999994,0.));
#786=CARTESIAN_POINT('Origin',(3.1,-2.62499999999994,0.));
#787=CARTESIAN_POINT('',(3.1,-2.62499999999994,0.));
#788=CARTESIAN_POINT('',(3.1,-2.62499999999994,0.));
#789=CARTESIAN_POINT('',(3.1,-2.62499999999994,0.5));
#790=CARTESIAN_POINT('',(3.1,-2.62499999999994,0.5));
#791=CARTESIAN_POINT('',(3.1,-2.62499999999994,0.));
#792=CARTESIAN_POINT('Origin',(3.1,-1.87500000000011,0.));
#793=CARTESIAN_POINT('',(3.1,-1.87500000000011,0.));
#794=CARTESIAN_POINT('',(3.1,-1.87500000000011,0.));
#795=CARTESIAN_POINT('',(3.1,-1.87500000000011,0.5));
#796=CARTESIAN_POINT('',(3.1,-1.87500000000011,0.5));
#797=CARTESIAN_POINT('',(3.1,-1.87500000000011,0.));
#798=CARTESIAN_POINT('Origin',(4.35000000000003,-1.87500000000011,0.));
#799=CARTESIAN_POINT('',(4.35000000000003,-1.87500000000011,0.));
#800=CARTESIAN_POINT('',(4.35000000000003,-1.87500000000011,0.5));
#801=CARTESIAN_POINT('Origin',(3.72500000000002,-2.25000000000003,0.));
#802=CARTESIAN_POINT('Origin',(3.72500000000002,-2.25000000000003,0.5));
#803=CARTESIAN_POINT('Origin',(-4.34999999999997,-2.62500000000003,0.));
#804=CARTESIAN_POINT('',(-3.1,-2.62500000000003,0.));
#805=CARTESIAN_POINT('',(-4.34999999999997,-2.62500000000003,0.));
#806=CARTESIAN_POINT('',(-3.1,-2.62500000000003,0.));
#807=CARTESIAN_POINT('',(-3.1,-2.62500000000003,0.5));
#808=CARTESIAN_POINT('',(-3.1,-2.62500000000003,0.));
#809=CARTESIAN_POINT('',(-4.34999999999997,-2.62500000000003,0.5));
#810=CARTESIAN_POINT('',(-3.1,-2.62500000000003,0.5));
#811=CARTESIAN_POINT('',(-4.34999999999997,-2.62500000000003,0.));
#812=CARTESIAN_POINT('Origin',(-4.34999999999997,-1.87500000000003,0.));
#813=CARTESIAN_POINT('',(-4.34999999999997,-1.87500000000003,0.));
#814=CARTESIAN_POINT('',(-4.34999999999997,-2.62500000000003,0.));
#815=CARTESIAN_POINT('',(-4.34999999999997,-1.87500000000003,0.5));
#816=CARTESIAN_POINT('',(-4.34999999999997,-2.62500000000003,0.5));
#817=CARTESIAN_POINT('',(-4.34999999999997,-1.87500000000003,0.));
#818=CARTESIAN_POINT('Origin',(-3.1,-1.87500000000003,0.));
#819=CARTESIAN_POINT('',(-3.1,-1.87500000000003,0.));
#820=CARTESIAN_POINT('',(-4.34999999999997,-1.87500000000003,0.));
#821=CARTESIAN_POINT('',(-3.1,-1.87500000000003,0.5));
#822=CARTESIAN_POINT('',(-4.34999999999997,-1.87500000000003,0.5));
#823=CARTESIAN_POINT('',(-3.1,-1.87500000000003,0.));
#824=CARTESIAN_POINT('Origin',(-3.1,-2.62500000000003,0.));
#825=CARTESIAN_POINT('',(-3.1,-1.87500000000003,0.));
#826=CARTESIAN_POINT('',(-3.1,-1.87500000000003,0.5));
#827=CARTESIAN_POINT('Origin',(-3.72499999999998,-2.25000000000003,0.));
#828=CARTESIAN_POINT('Origin',(-3.72499999999998,-2.25000000000003,0.5));
#829=UNCERTAINTY_MEASURE_WITH_UNIT(LENGTH_MEASURE(0.01),#833,
'DISTANCE_ACCURACY_VALUE',
'Maximum model space distance between geometric entities at asserted c
onnectivities');
#830=UNCERTAINTY_MEASURE_WITH_UNIT(LENGTH_MEASURE(0.01),#833,
'DISTANCE_ACCURACY_VALUE',
'Maximum model space distance between geometric entities at asserted c
onnectivities');
#831=(
GEOMETRIC_REPRESENTATION_CONTEXT(3)
GLOBAL_UNCERTAINTY_ASSIGNED_CONTEXT((#829))
GLOBAL_UNIT_ASSIGNED_CONTEXT((#833,#835,#836))
REPRESENTATION_CONTEXT('','3D')
);
#832=(
GEOMETRIC_REPRESENTATION_CONTEXT(3)
GLOBAL_UNCERTAINTY_ASSIGNED_CONTEXT((#830))
GLOBAL_UNIT_ASSIGNED_CONTEXT((#833,#835,#836))
REPRESENTATION_CONTEXT('','3D')
);
#833=(
LENGTH_UNIT()
NAMED_UNIT(*)
SI_UNIT(.MILLI.,.METRE.)
);
#834=(
LENGTH_UNIT()
NAMED_UNIT(*)
SI_UNIT($,.METRE.)
);
#835=(
NAMED_UNIT(*)
PLANE_ANGLE_UNIT()
SI_UNIT($,.RADIAN.)
);
#836=(
NAMED_UNIT(*)
SI_UNIT($,.STERADIAN.)
SOLID_ANGLE_UNIT()
);
#837=SHAPE_DEFINITION_REPRESENTATION(#838,#839);
#838=PRODUCT_DEFINITION_SHAPE('',$,#841);
#839=SHAPE_REPRESENTATION('',(#525),#831);
#840=PRODUCT_DEFINITION_CONTEXT('part definition',#845,'design');
#841=PRODUCT_DEFINITION('Pushbutton','Pushbutton v1',#842,#840);
#842=PRODUCT_DEFINITION_FORMATION('',$,#847);
#843=PRODUCT_RELATED_PRODUCT_CATEGORY('Pushbutton v1','Pushbutton v1',(#847));
#844=APPLICATION_PROTOCOL_DEFINITION('international standard',
'automotive_design',2009,#845);
#845=APPLICATION_CONTEXT(
'Core Data for Automotive Mechanical Design Process');
#846=PRODUCT_CONTEXT('part definition',#845,'mechanical');
#847=PRODUCT('Pushbutton','Pushbutton v1',$,(#846));
#848=PRESENTATION_STYLE_ASSIGNMENT((#849));
#849=SURFACE_STYLE_USAGE(.BOTH.,#850);
#850=SURFACE_SIDE_STYLE('',(#851));
#851=SURFACE_STYLE_FILL_AREA(#852);
#852=FILL_AREA_STYLE('Steel - Satin',(#853));
#853=FILL_AREA_STYLE_COLOUR('Steel - Satin',#854);
#854=COLOUR_RGB('Steel - Satin',0.627450980392157,0.627450980392157,0.627450980392157);
ENDSEC;
END-ISO-10303-21;
