ISO-10303-21;
HEADER;
/* Generated by software containing ST-Developer
 * from STEP Tools, Inc. (www.steptools.com) 
 */

FILE_DESCRIPTION(
/* description */ (''),
/* implementation_level */ '2;1');

FILE_NAME(
/* name */ 'Amazon_RJ45 v1.step',
/* time_stamp */ '2024-09-05T18:24:15-07:00',
/* author */ (''),
/* organization */ (''),
/* preprocessor_version */ 'ST-DEVELOPER v20',
/* originating_system */ 'Autodesk Translation Framework v13.14.0.145',

/* authorisation */ '');

FILE_SCHEMA (('AUTOMOTIVE_DESIGN { 1 0 10303 214 3 1 1 }'));
ENDSEC;

DATA;
#10=MECHANICAL_DESIGN_GEOMETRIC_PRESENTATION_REPRESENTATION('',(#13),#589);
#11=SHAPE_REPRESENTATION_RELATIONSHIP('SRR','None',#596,#12);
#12=ADVANCED_BREP_SHAPE_REPRESENTATION('',(#14),#588);
#13=STYLED_ITEM('',(#605),#14);
#14=MANIFOLD_SOLID_BREP('Body1',#365);
#15=FACE_BOUND('',#53,.T.);
#16=FACE_OUTER_BOUND('',#35,.T.);
#17=FACE_OUTER_BOUND('',#36,.T.);
#18=FACE_OUTER_BOUND('',#37,.T.);
#19=FACE_OUTER_BOUND('',#38,.T.);
#20=FACE_OUTER_BOUND('',#39,.T.);
#21=FACE_OUTER_BOUND('',#40,.T.);
#22=FACE_OUTER_BOUND('',#41,.T.);
#23=FACE_OUTER_BOUND('',#42,.T.);
#24=FACE_OUTER_BOUND('',#43,.T.);
#25=FACE_OUTER_BOUND('',#44,.T.);
#26=FACE_OUTER_BOUND('',#45,.T.);
#27=FACE_OUTER_BOUND('',#46,.T.);
#28=FACE_OUTER_BOUND('',#47,.T.);
#29=FACE_OUTER_BOUND('',#48,.T.);
#30=FACE_OUTER_BOUND('',#49,.T.);
#31=FACE_OUTER_BOUND('',#50,.T.);
#32=FACE_OUTER_BOUND('',#51,.T.);
#33=FACE_OUTER_BOUND('',#52,.T.);
#34=FACE_OUTER_BOUND('',#54,.T.);
#35=EDGE_LOOP('',(#231,#232,#233,#234));
#36=EDGE_LOOP('',(#235,#236,#237,#238));
#37=EDGE_LOOP('',(#239,#240,#241,#242));
#38=EDGE_LOOP('',(#243,#244,#245,#246));
#39=EDGE_LOOP('',(#247,#248,#249,#250));
#40=EDGE_LOOP('',(#251,#252,#253,#254));
#41=EDGE_LOOP('',(#255,#256,#257,#258));
#42=EDGE_LOOP('',(#259,#260,#261,#262));
#43=EDGE_LOOP('',(#263,#264,#265,#266));
#44=EDGE_LOOP('',(#267,#268,#269,#270));
#45=EDGE_LOOP('',(#271,#272,#273,#274));
#46=EDGE_LOOP('',(#275,#276,#277,#278));
#47=EDGE_LOOP('',(#279,#280,#281,#282,#283,#284,#285,#286,#287,#288,#289,
#290));
#48=EDGE_LOOP('',(#291,#292,#293,#294));
#49=EDGE_LOOP('',(#295,#296,#297,#298));
#50=EDGE_LOOP('',(#299,#300,#301,#302));
#51=EDGE_LOOP('',(#303,#304,#305,#306));
#52=EDGE_LOOP('',(#307,#308,#309,#310));
#53=EDGE_LOOP('',(#311,#312,#313,#314,#315,#316,#317,#318,#319,#320,#321,
#322));
#54=EDGE_LOOP('',(#323,#324,#325,#326));
#55=LINE('',#490,#103);
#56=LINE('',#492,#104);
#57=LINE('',#494,#105);
#58=LINE('',#495,#106);
#59=LINE('',#498,#107);
#60=LINE('',#500,#108);
#61=LINE('',#501,#109);
#62=LINE('',#504,#110);
#63=LINE('',#506,#111);
#64=LINE('',#507,#112);
#65=LINE('',#510,#113);
#66=LINE('',#512,#114);
#67=LINE('',#513,#115);
#68=LINE('',#516,#116);
#69=LINE('',#518,#117);
#70=LINE('',#519,#118);
#71=LINE('',#522,#119);
#72=LINE('',#524,#120);
#73=LINE('',#525,#121);
#74=LINE('',#528,#122);
#75=LINE('',#530,#123);
#76=LINE('',#531,#124);
#77=LINE('',#534,#125);
#78=LINE('',#536,#126);
#79=LINE('',#537,#127);
#80=LINE('',#540,#128);
#81=LINE('',#542,#129);
#82=LINE('',#543,#130);
#83=LINE('',#546,#131);
#84=LINE('',#548,#132);
#85=LINE('',#549,#133);
#86=LINE('',#552,#134);
#87=LINE('',#554,#135);
#88=LINE('',#555,#136);
#89=LINE('',#557,#137);
#90=LINE('',#558,#138);
#91=LINE('',#563,#139);
#92=LINE('',#565,#140);
#93=LINE('',#567,#141);
#94=LINE('',#568,#142);
#95=LINE('',#571,#143);
#96=LINE('',#573,#144);
#97=LINE('',#574,#145);
#98=LINE('',#577,#146);
#99=LINE('',#579,#147);
#100=LINE('',#580,#148);
#101=LINE('',#582,#149);
#102=LINE('',#583,#150);
#103=VECTOR('',#402,10.);
#104=VECTOR('',#403,10.);
#105=VECTOR('',#404,10.);
#106=VECTOR('',#405,10.);
#107=VECTOR('',#408,10.);
#108=VECTOR('',#409,10.);
#109=VECTOR('',#410,10.);
#110=VECTOR('',#413,10.);
#111=VECTOR('',#414,10.);
#112=VECTOR('',#415,10.);
#113=VECTOR('',#418,10.);
#114=VECTOR('',#419,10.);
#115=VECTOR('',#420,10.);
#116=VECTOR('',#423,10.);
#117=VECTOR('',#424,10.);
#118=VECTOR('',#425,10.);
#119=VECTOR('',#428,10.);
#120=VECTOR('',#429,10.);
#121=VECTOR('',#430,10.);
#122=VECTOR('',#433,10.);
#123=VECTOR('',#434,10.);
#124=VECTOR('',#435,10.);
#125=VECTOR('',#438,10.);
#126=VECTOR('',#439,10.);
#127=VECTOR('',#440,10.);
#128=VECTOR('',#443,10.);
#129=VECTOR('',#444,10.);
#130=VECTOR('',#445,10.);
#131=VECTOR('',#448,10.);
#132=VECTOR('',#449,10.);
#133=VECTOR('',#450,10.);
#134=VECTOR('',#453,10.);
#135=VECTOR('',#454,10.);
#136=VECTOR('',#455,10.);
#137=VECTOR('',#458,10.);
#138=VECTOR('',#459,10.);
#139=VECTOR('',#464,10.);
#140=VECTOR('',#465,10.);
#141=VECTOR('',#466,10.);
#142=VECTOR('',#467,10.);
#143=VECTOR('',#470,10.);
#144=VECTOR('',#471,10.);
#145=VECTOR('',#472,10.);
#146=VECTOR('',#475,10.);
#147=VECTOR('',#476,10.);
#148=VECTOR('',#477,10.);
#149=VECTOR('',#480,10.);
#150=VECTOR('',#481,10.);
#151=VERTEX_POINT('',#488);
#152=VERTEX_POINT('',#489);
#153=VERTEX_POINT('',#491);
#154=VERTEX_POINT('',#493);
#155=VERTEX_POINT('',#497);
#156=VERTEX_POINT('',#499);
#157=VERTEX_POINT('',#503);
#158=VERTEX_POINT('',#505);
#159=VERTEX_POINT('',#509);
#160=VERTEX_POINT('',#511);
#161=VERTEX_POINT('',#515);
#162=VERTEX_POINT('',#517);
#163=VERTEX_POINT('',#521);
#164=VERTEX_POINT('',#523);
#165=VERTEX_POINT('',#527);
#166=VERTEX_POINT('',#529);
#167=VERTEX_POINT('',#533);
#168=VERTEX_POINT('',#535);
#169=VERTEX_POINT('',#539);
#170=VERTEX_POINT('',#541);
#171=VERTEX_POINT('',#545);
#172=VERTEX_POINT('',#547);
#173=VERTEX_POINT('',#551);
#174=VERTEX_POINT('',#553);
#175=VERTEX_POINT('',#561);
#176=VERTEX_POINT('',#562);
#177=VERTEX_POINT('',#564);
#178=VERTEX_POINT('',#566);
#179=VERTEX_POINT('',#570);
#180=VERTEX_POINT('',#572);
#181=VERTEX_POINT('',#576);
#182=VERTEX_POINT('',#578);
#183=EDGE_CURVE('',#151,#152,#55,.T.);
#184=EDGE_CURVE('',#151,#153,#56,.T.);
#185=EDGE_CURVE('',#153,#154,#57,.T.);
#186=EDGE_CURVE('',#152,#154,#58,.T.);
#187=EDGE_CURVE('',#155,#151,#59,.T.);
#188=EDGE_CURVE('',#155,#156,#60,.T.);
#189=EDGE_CURVE('',#156,#153,#61,.T.);
#190=EDGE_CURVE('',#157,#155,#62,.T.);
#191=EDGE_CURVE('',#157,#158,#63,.T.);
#192=EDGE_CURVE('',#158,#156,#64,.T.);
#193=EDGE_CURVE('',#159,#157,#65,.T.);
#194=EDGE_CURVE('',#159,#160,#66,.T.);
#195=EDGE_CURVE('',#160,#158,#67,.T.);
#196=EDGE_CURVE('',#161,#159,#68,.T.);
#197=EDGE_CURVE('',#161,#162,#69,.T.);
#198=EDGE_CURVE('',#162,#160,#70,.T.);
#199=EDGE_CURVE('',#163,#161,#71,.T.);
#200=EDGE_CURVE('',#163,#164,#72,.T.);
#201=EDGE_CURVE('',#164,#162,#73,.T.);
#202=EDGE_CURVE('',#165,#163,#74,.T.);
#203=EDGE_CURVE('',#165,#166,#75,.T.);
#204=EDGE_CURVE('',#166,#164,#76,.T.);
#205=EDGE_CURVE('',#167,#165,#77,.T.);
#206=EDGE_CURVE('',#167,#168,#78,.T.);
#207=EDGE_CURVE('',#168,#166,#79,.T.);
#208=EDGE_CURVE('',#169,#167,#80,.T.);
#209=EDGE_CURVE('',#169,#170,#81,.T.);
#210=EDGE_CURVE('',#170,#168,#82,.T.);
#211=EDGE_CURVE('',#171,#169,#83,.T.);
#212=EDGE_CURVE('',#171,#172,#84,.T.);
#213=EDGE_CURVE('',#172,#170,#85,.T.);
#214=EDGE_CURVE('',#173,#171,#86,.T.);
#215=EDGE_CURVE('',#173,#174,#87,.T.);
#216=EDGE_CURVE('',#174,#172,#88,.T.);
#217=EDGE_CURVE('',#152,#173,#89,.T.);
#218=EDGE_CURVE('',#154,#174,#90,.T.);
#219=EDGE_CURVE('',#175,#176,#91,.T.);
#220=EDGE_CURVE('',#175,#177,#92,.T.);
#221=EDGE_CURVE('',#178,#177,#93,.T.);
#222=EDGE_CURVE('',#176,#178,#94,.T.);
#223=EDGE_CURVE('',#176,#179,#95,.T.);
#224=EDGE_CURVE('',#180,#178,#96,.T.);
#225=EDGE_CURVE('',#179,#180,#97,.T.);
#226=EDGE_CURVE('',#179,#181,#98,.T.);
#227=EDGE_CURVE('',#182,#180,#99,.T.);
#228=EDGE_CURVE('',#181,#182,#100,.T.);
#229=EDGE_CURVE('',#181,#175,#101,.T.);
#230=EDGE_CURVE('',#177,#182,#102,.T.);
#231=ORIENTED_EDGE('',*,*,#183,.F.);
#232=ORIENTED_EDGE('',*,*,#184,.T.);
#233=ORIENTED_EDGE('',*,*,#185,.T.);
#234=ORIENTED_EDGE('',*,*,#186,.F.);
#235=ORIENTED_EDGE('',*,*,#187,.F.);
#236=ORIENTED_EDGE('',*,*,#188,.T.);
#237=ORIENTED_EDGE('',*,*,#189,.T.);
#238=ORIENTED_EDGE('',*,*,#184,.F.);
#239=ORIENTED_EDGE('',*,*,#190,.F.);
#240=ORIENTED_EDGE('',*,*,#191,.T.);
#241=ORIENTED_EDGE('',*,*,#192,.T.);
#242=ORIENTED_EDGE('',*,*,#188,.F.);
#243=ORIENTED_EDGE('',*,*,#193,.F.);
#244=ORIENTED_EDGE('',*,*,#194,.T.);
#245=ORIENTED_EDGE('',*,*,#195,.T.);
#246=ORIENTED_EDGE('',*,*,#191,.F.);
#247=ORIENTED_EDGE('',*,*,#196,.F.);
#248=ORIENTED_EDGE('',*,*,#197,.T.);
#249=ORIENTED_EDGE('',*,*,#198,.T.);
#250=ORIENTED_EDGE('',*,*,#194,.F.);
#251=ORIENTED_EDGE('',*,*,#199,.F.);
#252=ORIENTED_EDGE('',*,*,#200,.T.);
#253=ORIENTED_EDGE('',*,*,#201,.T.);
#254=ORIENTED_EDGE('',*,*,#197,.F.);
#255=ORIENTED_EDGE('',*,*,#202,.F.);
#256=ORIENTED_EDGE('',*,*,#203,.T.);
#257=ORIENTED_EDGE('',*,*,#204,.T.);
#258=ORIENTED_EDGE('',*,*,#200,.F.);
#259=ORIENTED_EDGE('',*,*,#205,.F.);
#260=ORIENTED_EDGE('',*,*,#206,.T.);
#261=ORIENTED_EDGE('',*,*,#207,.T.);
#262=ORIENTED_EDGE('',*,*,#203,.F.);
#263=ORIENTED_EDGE('',*,*,#208,.F.);
#264=ORIENTED_EDGE('',*,*,#209,.T.);
#265=ORIENTED_EDGE('',*,*,#210,.T.);
#266=ORIENTED_EDGE('',*,*,#206,.F.);
#267=ORIENTED_EDGE('',*,*,#211,.F.);
#268=ORIENTED_EDGE('',*,*,#212,.T.);
#269=ORIENTED_EDGE('',*,*,#213,.T.);
#270=ORIENTED_EDGE('',*,*,#209,.F.);
#271=ORIENTED_EDGE('',*,*,#214,.F.);
#272=ORIENTED_EDGE('',*,*,#215,.T.);
#273=ORIENTED_EDGE('',*,*,#216,.T.);
#274=ORIENTED_EDGE('',*,*,#212,.F.);
#275=ORIENTED_EDGE('',*,*,#217,.F.);
#276=ORIENTED_EDGE('',*,*,#186,.T.);
#277=ORIENTED_EDGE('',*,*,#218,.T.);
#278=ORIENTED_EDGE('',*,*,#215,.F.);
#279=ORIENTED_EDGE('',*,*,#218,.F.);
#280=ORIENTED_EDGE('',*,*,#185,.F.);
#281=ORIENTED_EDGE('',*,*,#189,.F.);
#282=ORIENTED_EDGE('',*,*,#192,.F.);
#283=ORIENTED_EDGE('',*,*,#195,.F.);
#284=ORIENTED_EDGE('',*,*,#198,.F.);
#285=ORIENTED_EDGE('',*,*,#201,.F.);
#286=ORIENTED_EDGE('',*,*,#204,.F.);
#287=ORIENTED_EDGE('',*,*,#207,.F.);
#288=ORIENTED_EDGE('',*,*,#210,.F.);
#289=ORIENTED_EDGE('',*,*,#213,.F.);
#290=ORIENTED_EDGE('',*,*,#216,.F.);
#291=ORIENTED_EDGE('',*,*,#219,.F.);
#292=ORIENTED_EDGE('',*,*,#220,.T.);
#293=ORIENTED_EDGE('',*,*,#221,.F.);
#294=ORIENTED_EDGE('',*,*,#222,.F.);
#295=ORIENTED_EDGE('',*,*,#223,.F.);
#296=ORIENTED_EDGE('',*,*,#222,.T.);
#297=ORIENTED_EDGE('',*,*,#224,.F.);
#298=ORIENTED_EDGE('',*,*,#225,.F.);
#299=ORIENTED_EDGE('',*,*,#226,.F.);
#300=ORIENTED_EDGE('',*,*,#225,.T.);
#301=ORIENTED_EDGE('',*,*,#227,.F.);
#302=ORIENTED_EDGE('',*,*,#228,.F.);
#303=ORIENTED_EDGE('',*,*,#229,.F.);
#304=ORIENTED_EDGE('',*,*,#228,.T.);
#305=ORIENTED_EDGE('',*,*,#230,.F.);
#306=ORIENTED_EDGE('',*,*,#220,.F.);
#307=ORIENTED_EDGE('',*,*,#230,.T.);
#308=ORIENTED_EDGE('',*,*,#227,.T.);
#309=ORIENTED_EDGE('',*,*,#224,.T.);
#310=ORIENTED_EDGE('',*,*,#221,.T.);
#311=ORIENTED_EDGE('',*,*,#183,.T.);
#312=ORIENTED_EDGE('',*,*,#217,.T.);
#313=ORIENTED_EDGE('',*,*,#214,.T.);
#314=ORIENTED_EDGE('',*,*,#211,.T.);
#315=ORIENTED_EDGE('',*,*,#208,.T.);
#316=ORIENTED_EDGE('',*,*,#205,.T.);
#317=ORIENTED_EDGE('',*,*,#202,.T.);
#318=ORIENTED_EDGE('',*,*,#199,.T.);
#319=ORIENTED_EDGE('',*,*,#196,.T.);
#320=ORIENTED_EDGE('',*,*,#193,.T.);
#321=ORIENTED_EDGE('',*,*,#190,.T.);
#322=ORIENTED_EDGE('',*,*,#187,.T.);
#323=ORIENTED_EDGE('',*,*,#229,.T.);
#324=ORIENTED_EDGE('',*,*,#219,.T.);
#325=ORIENTED_EDGE('',*,*,#223,.T.);
#326=ORIENTED_EDGE('',*,*,#226,.T.);
#327=PLANE('',#379);
#328=PLANE('',#380);
#329=PLANE('',#381);
#330=PLANE('',#382);
#331=PLANE('',#383);
#332=PLANE('',#384);
#333=PLANE('',#385);
#334=PLANE('',#386);
#335=PLANE('',#387);
#336=PLANE('',#388);
#337=PLANE('',#389);
#338=PLANE('',#390);
#339=PLANE('',#391);
#340=PLANE('',#392);
#341=PLANE('',#393);
#342=PLANE('',#394);
#343=PLANE('',#395);
#344=PLANE('',#396);
#345=PLANE('',#397);
#346=ADVANCED_FACE('',(#16),#327,.F.);
#347=ADVANCED_FACE('',(#17),#328,.F.);
#348=ADVANCED_FACE('',(#18),#329,.F.);
#349=ADVANCED_FACE('',(#19),#330,.F.);
#350=ADVANCED_FACE('',(#20),#331,.F.);
#351=ADVANCED_FACE('',(#21),#332,.F.);
#352=ADVANCED_FACE('',(#22),#333,.F.);
#353=ADVANCED_FACE('',(#23),#334,.F.);
#354=ADVANCED_FACE('',(#24),#335,.F.);
#355=ADVANCED_FACE('',(#25),#336,.F.);
#356=ADVANCED_FACE('',(#26),#337,.F.);
#357=ADVANCED_FACE('',(#27),#338,.F.);
#358=ADVANCED_FACE('',(#28),#339,.F.);
#359=ADVANCED_FACE('',(#29),#340,.T.);
#360=ADVANCED_FACE('',(#30),#341,.T.);
#361=ADVANCED_FACE('',(#31),#342,.T.);
#362=ADVANCED_FACE('',(#32),#343,.T.);
#363=ADVANCED_FACE('',(#33,#15),#344,.T.);
#364=ADVANCED_FACE('',(#34),#345,.F.);
#365=CLOSED_SHELL('',(#346,#347,#348,#349,#350,#351,#352,#353,#354,#355,
#356,#357,#358,#359,#360,#361,#362,#363,#364));
#366=DERIVED_UNIT_ELEMENT(#368,1.);
#367=DERIVED_UNIT_ELEMENT(#591,-3.);
#368=(
MASS_UNIT()
NAMED_UNIT(*)
SI_UNIT(.KILO.,.GRAM.)
);
#369=DERIVED_UNIT((#366,#367));
#370=MEASURE_REPRESENTATION_ITEM('density measure',
POSITIVE_RATIO_MEASURE(7850.),#369);
#371=PROPERTY_DEFINITION_REPRESENTATION(#376,#373);
#372=PROPERTY_DEFINITION_REPRESENTATION(#377,#374);
#373=REPRESENTATION('material name',(#375),#588);
#374=REPRESENTATION('density',(#370),#588);
#375=DESCRIPTIVE_REPRESENTATION_ITEM('Steel','Steel');
#376=PROPERTY_DEFINITION('material property','material name',#598);
#377=PROPERTY_DEFINITION('material property','density of part',#598);
#378=AXIS2_PLACEMENT_3D('',#486,#398,#399);
#379=AXIS2_PLACEMENT_3D('',#487,#400,#401);
#380=AXIS2_PLACEMENT_3D('',#496,#406,#407);
#381=AXIS2_PLACEMENT_3D('',#502,#411,#412);
#382=AXIS2_PLACEMENT_3D('',#508,#416,#417);
#383=AXIS2_PLACEMENT_3D('',#514,#421,#422);
#384=AXIS2_PLACEMENT_3D('',#520,#426,#427);
#385=AXIS2_PLACEMENT_3D('',#526,#431,#432);
#386=AXIS2_PLACEMENT_3D('',#532,#436,#437);
#387=AXIS2_PLACEMENT_3D('',#538,#441,#442);
#388=AXIS2_PLACEMENT_3D('',#544,#446,#447);
#389=AXIS2_PLACEMENT_3D('',#550,#451,#452);
#390=AXIS2_PLACEMENT_3D('',#556,#456,#457);
#391=AXIS2_PLACEMENT_3D('',#559,#460,#461);
#392=AXIS2_PLACEMENT_3D('',#560,#462,#463);
#393=AXIS2_PLACEMENT_3D('',#569,#468,#469);
#394=AXIS2_PLACEMENT_3D('',#575,#473,#474);
#395=AXIS2_PLACEMENT_3D('',#581,#478,#479);
#396=AXIS2_PLACEMENT_3D('',#584,#482,#483);
#397=AXIS2_PLACEMENT_3D('',#585,#484,#485);
#398=DIRECTION('axis',(0.,0.,1.));
#399=DIRECTION('refdir',(1.,0.,0.));
#400=DIRECTION('center_axis',(-1.,0.,0.));
#401=DIRECTION('ref_axis',(0.,1.,0.));
#402=DIRECTION('',(0.,1.,0.));
#403=DIRECTION('',(0.,0.,-1.));
#404=DIRECTION('',(0.,1.,0.));
#405=DIRECTION('',(0.,0.,-1.));
#406=DIRECTION('center_axis',(0.,1.,0.));
#407=DIRECTION('ref_axis',(1.,0.,0.));
#408=DIRECTION('',(1.,0.,0.));
#409=DIRECTION('',(0.,0.,-1.));
#410=DIRECTION('',(1.,0.,0.));
#411=DIRECTION('center_axis',(-1.,0.,0.));
#412=DIRECTION('ref_axis',(0.,1.,0.));
#413=DIRECTION('',(0.,1.,0.));
#414=DIRECTION('',(0.,0.,-1.));
#415=DIRECTION('',(0.,1.,0.));
#416=DIRECTION('center_axis',(4.46015998965594E-17,-1.,0.));
#417=DIRECTION('ref_axis',(-1.,-4.46015998965594E-17,0.));
#418=DIRECTION('',(-1.,-4.46015998965594E-17,0.));
#419=DIRECTION('',(0.,0.,-1.));
#420=DIRECTION('',(-1.,-4.46015998965594E-17,0.));
#421=DIRECTION('center_axis',(1.,0.,0.));
#422=DIRECTION('ref_axis',(0.,-1.,0.));
#423=DIRECTION('',(0.,-1.,0.));
#424=DIRECTION('',(0.,0.,-1.));
#425=DIRECTION('',(0.,-1.,0.));
#426=DIRECTION('center_axis',(0.,1.,0.));
#427=DIRECTION('ref_axis',(1.,0.,0.));
#428=DIRECTION('',(1.,0.,0.));
#429=DIRECTION('',(0.,0.,-1.));
#430=DIRECTION('',(1.,0.,0.));
#431=DIRECTION('center_axis',(1.,0.,0.));
#432=DIRECTION('ref_axis',(0.,-1.,0.));
#433=DIRECTION('',(0.,-1.,0.));
#434=DIRECTION('',(0.,0.,-1.));
#435=DIRECTION('',(0.,-1.,0.));
#436=DIRECTION('center_axis',(0.,1.,0.));
#437=DIRECTION('ref_axis',(1.,0.,0.));
#438=DIRECTION('',(1.,0.,0.));
#439=DIRECTION('',(0.,0.,-1.));
#440=DIRECTION('',(1.,0.,0.));
#441=DIRECTION('center_axis',(1.,0.,0.));
#442=DIRECTION('ref_axis',(0.,-1.,0.));
#443=DIRECTION('',(0.,-1.,0.));
#444=DIRECTION('',(0.,0.,-1.));
#445=DIRECTION('',(0.,-1.,0.));
#446=DIRECTION('center_axis',(0.,1.,0.));
#447=DIRECTION('ref_axis',(1.,0.,0.));
#448=DIRECTION('',(1.,0.,0.));
#449=DIRECTION('',(0.,0.,-1.));
#450=DIRECTION('',(1.,0.,0.));
#451=DIRECTION('center_axis',(-1.,0.,0.));
#452=DIRECTION('ref_axis',(0.,1.,0.));
#453=DIRECTION('',(0.,1.,0.));
#454=DIRECTION('',(0.,0.,-1.));
#455=DIRECTION('',(0.,1.,0.));
#456=DIRECTION('center_axis',(0.,1.,0.));
#457=DIRECTION('ref_axis',(1.,0.,0.));
#458=DIRECTION('',(1.,0.,0.));
#459=DIRECTION('',(1.,0.,0.));
#460=DIRECTION('center_axis',(0.,0.,-1.));
#461=DIRECTION('ref_axis',(-1.,0.,0.));
#462=DIRECTION('center_axis',(-1.,1.34490978149625E-16,0.));
#463=DIRECTION('ref_axis',(-1.34490978149625E-16,-1.,0.));
#464=DIRECTION('',(1.34490978149625E-16,1.,0.));
#465=DIRECTION('',(0.,0.,1.));
#466=DIRECTION('',(-1.34490978149625E-16,-1.,0.));
#467=DIRECTION('',(0.,0.,1.));
#468=DIRECTION('center_axis',(6.93802665057591E-17,1.,0.));
#469=DIRECTION('ref_axis',(-1.,6.93802665057591E-17,0.));
#470=DIRECTION('',(1.,-6.93802665057591E-17,0.));
#471=DIRECTION('',(-1.,6.93802665057591E-17,0.));
#472=DIRECTION('',(0.,0.,1.));
#473=DIRECTION('center_axis',(1.,3.36227445374063E-16,0.));
#474=DIRECTION('ref_axis',(-3.36227445374063E-16,1.,0.));
#475=DIRECTION('',(3.36227445374063E-16,-1.,0.));
#476=DIRECTION('',(-3.36227445374063E-16,1.,0.));
#477=DIRECTION('',(0.,0.,1.));
#478=DIRECTION('center_axis',(-1.73450666264398E-15,-1.,0.));
#479=DIRECTION('ref_axis',(1.,-1.73450666264398E-15,0.));
#480=DIRECTION('',(-1.,1.73450666264398E-15,0.));
#481=DIRECTION('',(1.,-1.73450666264398E-15,0.));
#482=DIRECTION('center_axis',(0.,0.,1.));
#483=DIRECTION('ref_axis',(1.,0.,0.));
#484=DIRECTION('center_axis',(0.,0.,1.));
#485=DIRECTION('ref_axis',(1.,0.,0.));
#486=CARTESIAN_POINT('',(0.,0.,0.));
#487=CARTESIAN_POINT('Origin',(-3.32739999999999,4.0894,16.4338));
#488=CARTESIAN_POINT('',(-3.32739999999999,4.0894,16.4338));
#489=CARTESIAN_POINT('',(-3.32739999999999,5.715,16.4338));
#490=CARTESIAN_POINT('',(-3.32739999999999,2.0447,16.4338));
#491=CARTESIAN_POINT('',(-3.32739999999999,4.0894,5.8258));
#492=CARTESIAN_POINT('',(-3.32739999999999,4.0894,16.4338));
#493=CARTESIAN_POINT('',(-3.32739999999999,5.715,5.8258));
#494=CARTESIAN_POINT('',(-3.32739999999999,4.0894,5.8258));
#495=CARTESIAN_POINT('',(-3.32739999999999,5.715,16.4338));
#496=CARTESIAN_POINT('Origin',(-6.22299999999999,4.0894,16.4338));
#497=CARTESIAN_POINT('',(-6.22299999999999,4.0894,16.4338));
#498=CARTESIAN_POINT('',(-3.11149999999999,4.0894,16.4338));
#499=CARTESIAN_POINT('',(-6.22299999999999,4.0894,5.8258));
#500=CARTESIAN_POINT('',(-6.22299999999999,4.0894,16.4338));
#501=CARTESIAN_POINT('',(-6.22299999999999,4.0894,5.8258));
#502=CARTESIAN_POINT('Origin',(-6.22299999999999,-2.79400000000001,16.4338));
#503=CARTESIAN_POINT('',(-6.22299999999999,-2.79400000000001,16.4338));
#504=CARTESIAN_POINT('',(-6.22299999999999,-1.39700000000001,16.4338));
#505=CARTESIAN_POINT('',(-6.22299999999999,-2.79400000000001,5.8258));
#506=CARTESIAN_POINT('',(-6.22299999999999,-2.79400000000001,16.4338));
#507=CARTESIAN_POINT('',(-6.22299999999999,-2.79400000000001,5.8258));
#508=CARTESIAN_POINT('Origin',(6.22300000000001,-2.79400000000001,16.4338));
#509=CARTESIAN_POINT('',(6.22300000000001,-2.79400000000001,16.4338));
#510=CARTESIAN_POINT('',(3.11150000000001,-2.79400000000001,16.4338));
#511=CARTESIAN_POINT('',(6.22300000000001,-2.79400000000001,5.8258));
#512=CARTESIAN_POINT('',(6.22300000000001,-2.79400000000001,16.4338));
#513=CARTESIAN_POINT('',(6.22300000000001,-2.79400000000001,5.8258));
#514=CARTESIAN_POINT('Origin',(6.22300000000001,4.0894,16.4338));
#515=CARTESIAN_POINT('',(6.22300000000001,4.0894,16.4338));
#516=CARTESIAN_POINT('',(6.22300000000001,2.0447,16.4338));
#517=CARTESIAN_POINT('',(6.22300000000001,4.0894,5.8258));
#518=CARTESIAN_POINT('',(6.22300000000001,4.0894,16.4338));
#519=CARTESIAN_POINT('',(6.22300000000001,4.0894,5.8258));
#520=CARTESIAN_POINT('Origin',(3.32740000000001,4.0894,16.4338));
#521=CARTESIAN_POINT('',(3.32740000000001,4.0894,16.4338));
#522=CARTESIAN_POINT('',(1.66370000000001,4.0894,16.4338));
#523=CARTESIAN_POINT('',(3.32740000000001,4.0894,5.8258));
#524=CARTESIAN_POINT('',(3.32740000000001,4.0894,16.4338));
#525=CARTESIAN_POINT('',(-6.22299999999999,4.0894,5.8258));
#526=CARTESIAN_POINT('Origin',(3.32740000000001,5.715,16.4338));
#527=CARTESIAN_POINT('',(3.32740000000001,5.715,16.4338));
#528=CARTESIAN_POINT('',(3.32740000000001,2.8575,16.4338));
#529=CARTESIAN_POINT('',(3.32740000000001,5.715,5.8258));
#530=CARTESIAN_POINT('',(3.32740000000001,5.715,16.4338));
#531=CARTESIAN_POINT('',(3.32740000000001,5.715,5.8258));
#532=CARTESIAN_POINT('Origin',(2.31140000000001,5.715,16.4338));
#533=CARTESIAN_POINT('',(2.31140000000001,5.715,16.4338));
#534=CARTESIAN_POINT('',(1.15570000000001,5.715,16.4338));
#535=CARTESIAN_POINT('',(2.31140000000001,5.715,5.8258));
#536=CARTESIAN_POINT('',(2.31140000000001,5.715,16.4338));
#537=CARTESIAN_POINT('',(-3.32739999999999,5.715,5.8258));
#538=CARTESIAN_POINT('Origin',(2.31140000000001,7.3406,16.4338));
#539=CARTESIAN_POINT('',(2.31140000000001,7.3406,16.4338));
#540=CARTESIAN_POINT('',(2.31140000000001,3.6703,16.4338));
#541=CARTESIAN_POINT('',(2.31140000000001,7.3406,5.8258));
#542=CARTESIAN_POINT('',(2.31140000000001,7.3406,16.4338));
#543=CARTESIAN_POINT('',(2.31140000000001,7.3406,5.8258));
#544=CARTESIAN_POINT('Origin',(-2.31139999999999,7.3406,16.4338));
#545=CARTESIAN_POINT('',(-2.31139999999999,7.3406,16.4338));
#546=CARTESIAN_POINT('',(-1.15569999999999,7.3406,16.4338));
#547=CARTESIAN_POINT('',(-2.31139999999999,7.3406,5.8258));
#548=CARTESIAN_POINT('',(-2.31139999999999,7.3406,16.4338));
#549=CARTESIAN_POINT('',(-2.31139999999999,7.3406,5.8258));
#550=CARTESIAN_POINT('Origin',(-2.31139999999999,5.715,16.4338));
#551=CARTESIAN_POINT('',(-2.31139999999999,5.715,16.4338));
#552=CARTESIAN_POINT('',(-2.31139999999999,2.8575,16.4338));
#553=CARTESIAN_POINT('',(-2.31139999999999,5.715,5.8258));
#554=CARTESIAN_POINT('',(-2.31139999999999,5.715,16.4338));
#555=CARTESIAN_POINT('',(-2.31139999999999,5.715,5.8258));
#556=CARTESIAN_POINT('Origin',(-3.32739999999999,5.715,16.4338));
#557=CARTESIAN_POINT('',(-1.66369999999999,5.715,16.4338));
#558=CARTESIAN_POINT('',(-3.32739999999999,5.715,5.8258));
#559=CARTESIAN_POINT('Origin',(6.66133814775094E-15,2.2733,5.8258));
#560=CARTESIAN_POINT('Origin',(-8.00099999999999,8.25500000000001,0.));
#561=CARTESIAN_POINT('',(-8.00099999999999,-8.255,0.));
#562=CARTESIAN_POINT('',(-8.00099999999999,8.25500000000001,0.));
#563=CARTESIAN_POINT('',(-8.00099999999999,-8.255,0.));
#564=CARTESIAN_POINT('',(-8.00099999999999,-8.255,16.4338));
#565=CARTESIAN_POINT('',(-8.00099999999999,-8.255,0.));
#566=CARTESIAN_POINT('',(-8.00099999999999,8.255,16.4338));
#567=CARTESIAN_POINT('',(-8.00099999999999,-8.255,16.4338));
#568=CARTESIAN_POINT('',(-8.00099999999999,8.25500000000001,0.));
#569=CARTESIAN_POINT('Origin',(8.001,8.255,0.));
#570=CARTESIAN_POINT('',(8.001,8.255,0.));
#571=CARTESIAN_POINT('',(-8.00099999999999,8.255,0.));
#572=CARTESIAN_POINT('',(8.001,8.255,16.4338));
#573=CARTESIAN_POINT('',(-8.00099999999999,8.255,16.4338));
#574=CARTESIAN_POINT('',(8.001,8.255,0.));
#575=CARTESIAN_POINT('Origin',(8.00100000000001,-8.25500000000003,0.));
#576=CARTESIAN_POINT('',(8.00100000000001,-8.25500000000002,0.));
#577=CARTESIAN_POINT('',(8.001,8.255,0.));
#578=CARTESIAN_POINT('',(8.00100000000001,-8.25500000000002,16.4338));
#579=CARTESIAN_POINT('',(8.001,8.255,16.4338));
#580=CARTESIAN_POINT('',(8.00100000000001,-8.25500000000002,0.));
#581=CARTESIAN_POINT('Origin',(-8.00099999999999,-8.255,0.));
#582=CARTESIAN_POINT('',(8.00100000000001,-8.25500000000002,0.));
#583=CARTESIAN_POINT('',(8.00100000000001,-8.25500000000002,16.4338));
#584=CARTESIAN_POINT('Origin',(7.7715611723761E-15,-9.99200722162641E-15,
16.4338));
#585=CARTESIAN_POINT('Origin',(7.7715611723761E-15,-9.99200722162641E-15,
0.));
#586=UNCERTAINTY_MEASURE_WITH_UNIT(LENGTH_MEASURE(0.01),#590,
'DISTANCE_ACCURACY_VALUE',
'Maximum model space distance between geometric entities at asserted c
onnectivities');
#587=UNCERTAINTY_MEASURE_WITH_UNIT(LENGTH_MEASURE(0.01),#590,
'DISTANCE_ACCURACY_VALUE',
'Maximum model space distance between geometric entities at asserted c
onnectivities');
#588=(
GEOMETRIC_REPRESENTATION_CONTEXT(3)
GLOBAL_UNCERTAINTY_ASSIGNED_CONTEXT((#586))
GLOBAL_UNIT_ASSIGNED_CONTEXT((#590,#592,#593))
REPRESENTATION_CONTEXT('','3D')
);
#589=(
GEOMETRIC_REPRESENTATION_CONTEXT(3)
GLOBAL_UNCERTAINTY_ASSIGNED_CONTEXT((#587))
GLOBAL_UNIT_ASSIGNED_CONTEXT((#590,#592,#593))
REPRESENTATION_CONTEXT('','3D')
);
#590=(
LENGTH_UNIT()
NAMED_UNIT(*)
SI_UNIT(.MILLI.,.METRE.)
);
#591=(
LENGTH_UNIT()
NAMED_UNIT(*)
SI_UNIT($,.METRE.)
);
#592=(
NAMED_UNIT(*)
PLANE_ANGLE_UNIT()
SI_UNIT($,.RADIAN.)
);
#593=(
NAMED_UNIT(*)
SI_UNIT($,.STERADIAN.)
SOLID_ANGLE_UNIT()
);
#594=SHAPE_DEFINITION_REPRESENTATION(#595,#596);
#595=PRODUCT_DEFINITION_SHAPE('',$,#598);
#596=SHAPE_REPRESENTATION('',(#378),#588);
#597=PRODUCT_DEFINITION_CONTEXT('part definition',#602,'design');
#598=PRODUCT_DEFINITION('Amazon_RJ45','Amazon_RJ45 v1',#599,#597);
#599=PRODUCT_DEFINITION_FORMATION('',$,#604);
#600=PRODUCT_RELATED_PRODUCT_CATEGORY('Amazon_RJ45 v1','Amazon_RJ45 v1',
(#604));
#601=APPLICATION_PROTOCOL_DEFINITION('international standard',
'automotive_design',2009,#602);
#602=APPLICATION_CONTEXT(
'Core Data for Automotive Mechanical Design Process');
#603=PRODUCT_CONTEXT('part definition',#602,'mechanical');
#604=PRODUCT('Amazon_RJ45','Amazon_RJ45 v1',$,(#603));
#605=PRESENTATION_STYLE_ASSIGNMENT((#606));
#606=SURFACE_STYLE_USAGE(.BOTH.,#607);
#607=SURFACE_SIDE_STYLE('',(#608));
#608=SURFACE_STYLE_FILL_AREA(#609);
#609=FILL_AREA_STYLE('Steel - Satin',(#610));
#610=FILL_AREA_STYLE_COLOUR('Steel - Satin',#611);
#611=COLOUR_RGB('Steel - Satin',0.627450980392157,0.627450980392157,0.627450980392157);
ENDSEC;
END-ISO-10303-21;
